<svg xmlns="http://www.w3.org/2000/svg" width="512" height="512" viewBox="0 0 512 512" id="service"><path d="M58 49h-52c-.552 0-1 .447-1 1 0 .553.448 1 1 1h52c.553 0 1-.447 1-1 0-.553-.447-1-1-1zM10 47h44c.553 0 1-.447 1-1 0-.553-.447-1-1-1h-1.051c-.511-10.779-9.17-19.438-19.949-19.949v-2.051h5c.553 0 1-.448 1-1 0-.552-.447-1-1-1h-12c-.552 0-1 .448-1 1 0 .552.448 1 1 1h5v2.051c-10.78.511-19.438 9.17-19.949 19.949h-1.051c-.552 0-1 .447-1 1 0 .553.448 1 1 1zm22-20c10.139 0 18.425 7.989 18.949 18h-37.898c.525-10.011 8.81-18 18.949-18zM24.953 17.601c.16.385.532.618.924.618.127 0 .257-.025.382-.077.51-.211.752-.796.541-1.307l-2.296-5.543c-.211-.51-.796-.753-1.307-.541-.51.211-.752.796-.541 1.307l2.297 5.543zM46.783 26.878c.128 0 .258-.025.383-.077l5.543-2.296c.51-.211.752-.796.541-1.307-.211-.511-.799-.751-1.307-.541l-5.543 2.297c-.51.211-.752.796-.541 1.307.16.385.533.617.924.617zM37.74 18.142c.125.052.255.077.383.077.392 0 .765-.233.924-.618l2.297-5.544c.211-.51-.031-1.095-.541-1.307-.508-.209-1.096.03-1.307.541l-2.297 5.544c-.211.511.031 1.096.541 1.307zM11.292 24.504l5.544 2.297c.125.052.255.077.382.077.393 0 .765-.233.924-.618.211-.51-.031-1.095-.541-1.307l-5.544-2.297c-.512-.211-1.095.031-1.307.541-.21.511.032 1.096.542 1.307z" transform="scale(8)"></path></svg>