<svg xmlns="http://www.w3.org/2000/svg" viewBox="0 0 48 48" id="leg"><symbol id="New_Symbol_14" viewBox="-6.5 -6.5 13 13"><path fill="#ffd4c3" stroke="#504b46" stroke-linecap="round" stroke-linejoin="round" stroke-miterlimit="10" d="M0-6c2.2 0 4.1 1.5 4.7 3.5C6.3-2.5 6.4 0 5 0v1c0 2.8-2.2 5-5 5s-5-2.2-5-5V0c-1.4 0-1.3-2.5.2-2.5C-4.1-4.5-2.2-6 0-6z"></path><circle cx="-1.6" cy="-.1" r=".1" fill="#ffc258"></circle><path fill="#4f4b45" d="M-1.6.5c-.3 0-.6-.3-.6-.6s.2-.7.6-.7c.3 0 .6.3.6.7s-.3.6-.6.6z"></path><circle cx="1.6" cy="-.1" r=".1" fill="#ffc258"></circle><path fill="#4f4b45" d="M1.6.5C1.3.5 1 .2 1-.1s.3-.6.6-.6.6.3.6.6-.2.6-.6.6z"></path><circle cx="-3" cy="-1.5" r=".5" fill="#fabfa5"></circle><circle cx="3" cy="-1.5" r=".5" fill="#fabfa5"></circle><path fill="none" stroke="#504b46" stroke-linecap="round" stroke-linejoin="round" stroke-miterlimit="10" d="M-1.2-3c.8-.5 1.7-.5 2.5 0"></path></symbol><g id="Icons"><g id="XMLID_1975_"><path id="XMLID_507_" fill="#f0f0f0" d="M11.5 11.2l4 5.1 3-2.4-4-5.1c-1.3-1.7-.1-3.7-1.8-5.9-1-1.3-1.7-1-2.6-.3C9 3.5 9 4.9 9 4.9s-1.4-.3-2.5.6c-.9.7-1.1 1.5-.3 2.6 1.9 2.4 3.6 1 5.3 3.1z"></path><path id="XMLID_506_" fill="#fff" d="M6.6 8.5C7.7 7.6 9 7.9 9 7.9s0-1.4 1.1-2.3c.9-.7 1.7-.5 2.6.3.4.4.8.8 1.1 1.2-.2-1.3 0-2.7-1.1-4.1-1-1.3-1.7-1-2.6-.3C9 3.5 9 4.9 9 4.9s-1.4-.3-2.5.6c-.9.7-1.1 1.5-.3 2.6l.4.4z"></path><path id="XMLID_505_" fill="none" stroke="#45413c" stroke-linecap="round" stroke-linejoin="round" stroke-miterlimit="10" d="M11.5 11.2l4 5.1 3-2.4-4-5.1c-1.3-1.7-.1-3.7-1.8-5.9-1-1.3-1.7-1-2.6-.3C9 3.5 9 4.9 9 4.9s-1.4-.3-2.5.6c-.9.7-1.1 1.5-.3 2.6 1.9 2.4 3.6 1 5.3 3.1z"></path><ellipse id="XMLID_504_" cx="25.8" cy="44.4" fill="#45413c" opacity=".15" rx="12" ry="1.6"></ellipse><path id="XMLID_503_" fill="#bf8256" d="M20.8 39.3c4.1 5.2 11.6 6.1 16.8 2 5.2-4.1 6.1-11.6 2-16.8-4.8-6.1-16.6-8.4-16.7-8.6-1.3-1.7-1.4-2.6-1.4-2.9 0-.2 0-.4-.2-.5-.4-.6-1.2-.8-1.9-.6-1 .4-1.4 1.2-1.3 2-.6-.2-1.3-.1-1.8.3s-.8 1.1-.7 1.7c-.7-.3-1.5-.1-2.1.6-.6.7-.6 1.6-.1 2.2.1.1.3.3.5.3.4.1 1.2.4 2.5 2.1.2.2-.5 12 4.4 18.2z"></path><path id="XMLID_502_" fill="#bf8256" d="M20.8 39.3c4.1 5.2 11.6 6.1 16.8 2 5.2-4.1 6.1-11.6 2-16.8-4.8-6.1-16.6-8.4-16.7-8.6-1.3-1.7-1.4-2.6-1.4-2.9 0-.2 0-.4-.2-.5-.4-.6-1.2-.8-1.9-.6-1 .4-1.4 1.2-1.3 2-.6-.2-1.3-.1-1.8.3s-.8 1.1-.7 1.7c-.7-.3-1.5-.1-2.1.6-.6.7-.6 1.6-.1 2.2.1.1.3.3.5.3.4.1 1.2.4 2.5 2.1.2.2-.5 12 4.4 18.2z"></path><path id="XMLID_501_" fill="#dea47a" d="M13.8 19c.3 0 .9.3 1.7 1.1 0-.5.3-1 .7-1.3.5-.4 1.2-.5 1.8-.3-.1-.8.4-1.7 1.3-2 .7-.3 1.5 0 1.9.6.1.1.2.3.2.5 0 .4.1 1.3 1.4 2.9.2.2 11.9 2.6 16.7 8.6 1.2 1.5 2 3.3 2.3 5.1.6-3.3-.1-6.8-2.3-9.6-4.8-6.1-16.6-8.4-16.7-8.6-1.3-1.7-1.4-2.6-1.4-2.9 0-.2 0-.4-.2-.5-.4-.6-1.2-.8-1.9-.6-1 .4-1.4 1.2-1.3 2-.6-.2-1.3-.1-1.8.3s-.8 1.1-.7 1.7c-.7-.3-1.5-.1-2.1.6-.6.7-.6 1.6-.1 2.2.2 0 .3.1.5.2z"></path><path id="XMLID_500_" fill="none" stroke="#45413c" stroke-linecap="round" stroke-linejoin="round" stroke-miterlimit="10" d="M20.8 39.3c4.1 5.2 11.6 6.1 16.8 2 5.2-4.1 6.1-11.6 2-16.8-4.8-6.1-16.6-8.4-16.7-8.6-1.3-1.7-1.4-2.6-1.4-2.9 0-.2 0-.4-.2-.5-.4-.6-1.2-.8-1.9-.6-1 .4-1.4 1.2-1.3 2-.6-.2-1.3-.1-1.8.3s-.8 1.1-.7 1.7c-.7-.3-1.5-.1-2.1.6-.6.7-.6 1.6-.1 2.2.1.1.3.3.5.3.4.1 1.2.4 2.5 2.1.2.2-.5 12 4.4 18.2z"></path></g></g></svg>