<svg xmlns="http://www.w3.org/2000/svg" viewBox="0 0 64 64" id="chicken"><path fill="#dededf" d="M39.25 55.38s1.27.33 1.74 1.54c0 0-.73-.23-1.9-.71l.16-.83zm-6.01 6.94s-.21 1.12.09 1.68c0 0 .29-.13.54-.71l.4-.92-.46-.81-.57.76zm-5.13-.38s-.4.27-.68.92c0 0-.33-1.14-.12-1.8l.85-.31.25.33-.3.86zm-2.02-4.28s-.89.45-.89 1.38c0 0 .47-.52 1.05-.58l.68-.21.04-.46-.45-.29-.43.16z"></path><path fill="#f4a300" d="M36.65 47.07c-.36 1.88-.14 4.73-.49 7.5-.05.58.61.8 1.21.8.64-.08 1.27-.09 1.88 0-.05.65.2 1.06.94 1.1-.03.23-.36.36-1.38.28-.61-.14-1.33.15-2.1.63.1 1.01-.25 1.81-.88 2.45-.44.39-.78 1.02-1.08 1.74-.15.68-.53 1.19-.88 1.71.15-.7.11-1.19-.63-.97-.05-1.52.52-2.62 1.24-3.61l.03-.69c-.64.17-1.25.45-1.79.88-.71.86-1.81 1.39-3.23 1.68-.57.22-1.02.68-1.38 1.35.29-.85-.15-.97-.8-.88.21-1.1 1.11-2.15 3.09-3.12-1.05-.14-1.9-.18-2.37-.03-.52.45-1.13.57-1.76.55.45-.43.42-.71-.17-.8 1.33-1.26 2.95-1.87 4.88-1.82.96.08 1.68-.62 2.16-2.07.66-2.15.6-4.78.15-6.95l3.36.27z"></path><path fill="#dededf" d="M30.33 53.66s1.27.33 1.74 1.54c0 0-.73-.23-1.9-.71l.16-.83zm-6.02 6.95s-.21 1.12.09 1.68c0 0 .29-.13.54-.71l.4-.92-.46-.81-.57.76zm-5.13-.39s-.4.27-.68.92c0 0-.33-1.14-.12-1.8l.85-.31.25.33-.3.86zm-2.01-4.27s-.89.45-.89 1.38c0 0 .47-.52 1.05-.58l.68-.21.04-.46-.45-.29-.43.16z"></path><path fill="#f4a300" d="M27.73 45.35c-.36 1.88-.14 4.73-.49 7.5-.05.58.61.8 1.21.8.64-.08 1.27-.09 1.88 0-.05.65.2 1.06.94 1.1-.03.23-.36.36-1.38.28-.61-.14-1.33.15-2.1.63.1 1.01-.25 1.81-.88 2.45-.44.39-.78 1.02-1.08 1.74-.15.68-.53 1.19-.88 1.71.15-.7.11-1.19-.63-.97-.05-1.52.52-2.62 1.24-3.61l.03-.69c-.64.17-1.25.45-1.79.88-.71.86-1.81 1.39-3.23 1.68-.57.22-1.02.68-1.38 1.35.29-.85-.15-.97-.8-.88.21-1.1 1.11-2.15 3.09-3.12-1.05-.14-1.9-.18-2.37-.03-.52.45-1.13.57-1.76.55.45-.43.42-.71-.17-.8 1.33-1.26 2.95-1.87 4.88-1.82.96.08 1.68-.62 2.16-2.07.66-2.15.6-4.78.15-6.95l3.36.27z"></path><path fill="#e6ac43" d="m50.82 32.54-2.58-1.16-3.09-1.35-2.9-7.09v-1.45c.1-.08.19-.17.28-.26.32-.74.72-1.49 1.12-2.07v-.01l.06-.04a.31.31 0 0 0 .02-.08c1.22-4.41 2.39-9.08 5.11-9.12 1.43-3.3 5.14-3.3 4.88 1.08 3.09-1.53 4.43 1.09 3.23 4.55 2.79.01 3.09 2.54.86 5.63 2.23-.43 3.08 1.76-.14 5.13 2.37 1.11-2.34 7.21-6.85 6.24z"></path><path fill="#c41b0d" d="M20.08 6.81c2.36.26 3.03-1.01 2.56-3.34-.15-.56-.58-.68-1.43-.58-.79.13-1.3.02-1.35-.61.08-2.36-1.54-2.55-2.34-1.49-.43.65-.74.81-1.27.25-1.24-1.22-2.7-1.62-3.06.14-.19 1-.32 1.41-1.02 1.02-2.28-1.16-3.11-.44-2.73 1.6.19.8.2 1.35-.61 1.21-1.55-.23-2.61.3-1.88 1.46.61.8.96 1.32.26 1.59-1.09.55-.98 1.67.49 2.06h1.39l10.99-3.31z"></path><path fill="#ffdf75" d="M50.82 32.54c-.03.26-.06.53-.1.79-.36 1.58-.87 1.05-1.24 0v.01c.41 3.3-1.1 5.34-1.32 2.66-.41 5.19-3.79 6.95-3.19 3.47-3.23 7.01-10.17 9.8-14.02 6.25-5.09 2.83-8.4.56-9.8-4.8-2.37-.64-4.28-1.61-5.77-2.82-2.78-2.26-4.06-5.34-4.06-8.6 0-1.34.22-2.7.64-4.05.79-1.76.8-2.55.82-2.68l-.98-9.73-2.78-2.93c.98-5.06 10.4-8.49 15.57 2.1.75 1.38 1.37 2.8 1.88 4.24.87 2.24 1.93 3.56 3.65 4.21.33.13.67.23 1.05.3.28.06.58.11.9.14 1.19.07 2.3.35 3.31.93 2.14 1.05 5.14.92 6.88-.55.1-.08.19-.17.28-.26 2.89-.38 4.85.94 5.71 4.24.06.06.11.12.16.19 2.09 2.4 2.61 4.67 2.41 6.89z"></path><path fill="#f1b974" d="M48.16 36c-.41 5.19-3.79 6.95-3.19 3.47-3.23 7.01-10.17 9.8-14.02 6.25-5.09 2.83-8.4.56-9.8-4.8-2.37-.64-4.28-1.61-5.77-2.82 1.93.04 3.93.17 5.77.66 4.12 1.54 4.76 4.62 9.8 4.8 3.28 2.68 11.03.34 14.02-6.25-.6 3.48 2.77 1.72 3.19-3.47.17 2.02 1.07 1.36 1.32-.5.41 3.31-1.1 5.35-1.32 2.66z"></path><path fill="#fcd66f" d="m48.4 25.67-.14-.02-.03-.16c-.86-3.3-2.81-4.62-5.71-4.24.32-.74.72-1.49 1.12-2.07v-.01c.03-.04.06-.09.08-.13.92-1.32 1.76-1.69 1.4 1.09 1.17-1.23 1.82-1.14 1.61 1.12 1.39-.29 1.54.37 1.08 2.07.91-.11.86.84.59 2.35z"></path><path fill="#d08230" d="M46.45 26.12c1.75 3.8.64 8.4-1.25 2.5.7 5.27-.61 6.06-1.69 3.52-.36 2.35-1.57 2.06-2.61-.16 0 0 .3 1.13-.06 1.39-.94-.98-2.24-2.18-3.93-3.64-.6-.67-1.25-1.31-1.94-1.88-1.76-1.49-3.75-2.59-5.64-2.97.08-.8.43-1.13 1.1-1.51.72-.46 1.07-.98 1.07-1.51 0-.3-.11-.59-.33-.87.28.06.58.11.9.14 1.19.07 2.3.35 3.31.93 2.02.99 4.81.93 6.58-.32.21-.15.4-.3.58-.49 2.89-.38 4.85.94 5.71 4.24.41 2.37-.63 1.64-1.8.63z"></path><path fill="#eb8339" d="M30.42 23.36c-.68.38-1.03.71-1.1 1.52l-2.34 1.4-2.62 1.16c-.48.26-.75.32-1.35 0-.53-.2-.64.39-.53.83.22 1.43-.76 1.66-1.79.94-.66-.51-1.1-.3-1.25.34-.57 2.21-1.69 1.91-2.89.52-.34-.41-.59-.33-.94 0-1.19 1.04-1.74.05-1.71-1.02-.01-.52-.43-.64-.87.11-.53 1.04-1.28 1.13-1.71.35 0-1.34.22-2.7.64-4.05.79-1.76.8-2.55.82-2.68l-3.09-8.67.83-2.4-1.51-1.58c.98-5.06 10.4-8.49 15.57 2.1.75 1.38 1.37 2.8 1.88 4.24.41 1.04.85 1.88 1.39 2.55.61.77 1.34 1.31 2.26 1.66.33.13.67.23 1.05.3.61.78.39 1.66-.74 2.38z"></path><path fill="#fca028" d="M25.9 21.43c-1.46-.15-2.09.5-2.15 1.35-.09 1.31-.51 2.22-1.69 2.21-.57.04-1.05.38-1.3 1.05-.36 1-.77 1.53-1.65 1.02-.6-.38-1.27-.35-1.91.22-2.56 2.11-4.04-2.23-2.04-5.37.36-.41.46-1.12.27-2.15-.35-.89-.13-1.65.75-2.26 1.24-.97 1.33-2.1.54-3.34l-3.97-2.73-2.25.29-1.51-1.58c.98-5.06 10.4-8.49 15.57 2.1.75 1.38 1.37 2.8 1.88 4.24.41 1.04.85 1.88 1.39 2.55.39 1.85-.27 2.65-1.93 2.4z"></path><path fill="#c41b0d" d="M18.18 10.89c-.97.75-1.51 1.61-1.46 2.99.22 2.73-.59 3.96-2.72 3.26 1.85 5.14-.32 6.7-2.82 4.95-.86.8-1.71.71-2.57 0-1.27-1.07-1.58-2.99-.9-4.22.6-1.26 1.89-2.19 1.97-3.49.01-.09.01-.18 0-.27l.14.18.56.73.5-1.78c.3-.43.15-.96-.43-1.03-.56-.04-.93-.44-.7-.98.25-.5.18-.89-.07-.95h-.04l.04-.07c1.2-2.46 2.81-4.07 5.38-3.69 2.02.44 3.21 1.74 3.12 4.37z"></path><path fill="#e6ac6c" d="M9.69 10.27c-2.58-.37-4.33.66-5.47 2.69.76-.48 1.47-.79 2.4-.52.94.41 1.62.53 2.97.13-.76 1.35-2.12 2.17-3.92 2.62 1.93.15 4.03-.27 5.23-1.96.3-.43.15-.96-.43-1.03-.56-.04-.93-.44-.7-.98.24-.49.16-.88-.08-.95z"></path><path fill="#e6ac43" d="M25.07 25.57c3.41-2.26 8.45.37 11.83 4.15 5.96 5.14 7.01 7.21 5.15 6.74 2.03 1.19 1.69 2.16-.93 2.13.44.99-1.65 1.68-5.38.66-.07 1.1-3.02.62-5.81-.66-6.26-1.88-7.99-10.76-4.86-13.02z"></path><path fill="#dededf" d="M19.35 13.32c-.26 1.15-1.07 1.94-1.83 1.78-.75-.17-1.16-1.24-.9-2.38s1.07-1.94 1.83-1.78c.75.16 1.16 1.23.9 2.38z"></path><path fill="#fcd66f" d="M46.53 24.18c-1.16-2.43-3.58-2.15-3.58-2.15-.43.12-.74-.03-.99-.31-1.77 1.25-4.56 1.31-6.58.32-1.01-.58-2.12-.86-3.31-.93-.32-.04-.62-.08-.9-.14.22.28.33.58.33.87 0 .53-.35 1.05-1.07 1.51-.68.38-1.02.71-1.1 1.51 1.9.38 3.88 1.48 5.64 2.97 3 2.35 2.55.16 2.52.01 2.06 2.39 2.7 1.76 2.7 1.76 1.59-.3.89-1.79.57-2.35 1.91 2.97 3.08 2.28 3.08 2.28.71-1.32-.46-3.26-.46-3.26 1.64 1.54 2.19 1.55 2.19 1.55.8-.99-.49-2.4-.61-2.54 3.07 2.21 1.57-1.1 1.57-1.1z"></path><path fill="#eff3f5" d="M16.44 8.78c.18.96-.38 1.87-1.24 2.03-.87.16-1.72-.48-1.9-1.44-.18-.96.38-1.87 1.24-2.03.87-.16 1.72.48 1.9 1.44z"></path><path fill="#59cbef" d="M16.33 8.97c.16.87-.34 1.69-1.13 1.84-.79.15-1.56-.43-1.72-1.3-.16-.87.34-1.69 1.13-1.84.78-.16 1.55.43 1.72 1.3z"></path><path fill="#262626" d="M16.22 9.14c.15.79-.31 1.54-1.02 1.67-.71.14-1.41-.39-1.56-1.18-.15-.79.31-1.54 1.02-1.67.71-.14 1.41.39 1.56 1.18z"></path><path fill="#eff3f5" d="M16.25 9.45a.77.77 0 1 1-1.54 0 .77.77 0 0 1 1.54 0z" opacity=".5"></path></svg>