<svg xmlns="http://www.w3.org/2000/svg" viewBox="0 0 100 100" id="Fowl"><path d="M78.1 20.3c2.1 0 3.8-1.7 3.8-3.8 0-2.1-1.7-3.8-3.8-3.8-2.1 0-3.8 1.7-3.8 3.8 0 2.1 1.7 3.8 3.8 3.8zm-14.8 1.8c2.1 0 3.8-1.7 3.8-3.8 0-2.1-1.7-3.8-3.8-3.8-2.1 0-3.8 1.7-3.8 3.8 0 2.1 1.7 3.8 3.8 3.8zm8.2 5.2c-2.1 0-3.8 1.7-3.8 3.8 0 2.1 1.7 3.8 3.8 3.8 2.1 0 3.8-1.7 3.8-3.8 0-2.1-1.7-3.8-3.8-3.8z" fill="#d8a353" class="color000000 svgShape"></path><path d="M87.3 51.7C94.1 44.9 98 35.9 98 27.1c0-7-2.5-13.4-7.1-18S79.9 2 72.9 2c-8.8 0-17.7 3.9-24.5 10.7-3.3 3.3-6.5 7.6-9.2 12.5-5.5 9.8-10.4 23.6-7.6 33.5 0 .2.1.3.1.4.7 2.3 1.8 4.3 3.4 5.8s3.5 2.7 5.9 3.4c.1 0 .3.1.4.1 1.9.5 4.1.8 6.3.8 9.4 0 20.9-4.5 29.4-9.8 3.9-2.3 7.5-5 10.2-7.7zm-9.2-40.5c2.9 0 5.3 2.4 5.3 5.3s-2.4 5.3-5.3 5.3-5.3-2.4-5.3-5.3 2.4-5.3 5.3-5.3zM63.3 13c2.9 0 5.3 2.4 5.3 5.3s-2.4 5.3-5.3 5.3-5.3-2.4-5.3-5.3 2.4-5.3 5.3-5.3zm10.1 40.6c-8.7 5.4-18.5 8.8-25.8 8.8-1.8 0-3.4-.2-4.7-.6h-.1c-.4-.1-.6-.5-.5-.9s.5-.6.9-.5h.1c1.2.4 2.6.6 4.2.6 6.9 0 16.5-3.3 25-8.5.3-.2.8-.1 1 .2.4.2.3.6-.1.9zm-1.9-17.2c-2.9 0-5.3-2.4-5.3-5.3s2.4-5.3 5.3-5.3 5.3 2.4 5.3 5.3-2.3 5.3-5.3 5.3z" fill="#d8a353" class="color000000 svgShape"></path><path d="M34 66c-1.7-1.7-2.9-3.7-3.7-6.1L16.2 74c-3.6-2.4-8.4-2-11.5 1.1-3.5 3.6-3.5 9.3 0 12.9 1.3 1.3 3 2.2 4.9 2.5.3 1.9 1.2 3.5 2.5 4.9 1.8 1.8 4.1 2.7 6.4 2.7 1.2 0 2.3-.2 3.4-.7 1.1-.4 2.1-1.1 3-2 3.1-3.1 3.5-8 1.1-11.5l14.1-14.1c-2.4-.8-4.5-2.1-6.1-3.8z" fill="#d8a353" class="color000000 svgShape"></path></svg>